<mxfile host="app.diagrams.net" modified="2024-02-06T18:39:40.528Z" agent="Mozilla/5.0 (Windows NT 10.0; Win64; x64) AppleWebKit/537.36 (KHTML, like Gecko) Chrome/121.0.0.0 Safari/537.36" etag="Gg7qgCo9EoCHpqr67t06" version="22.1.21" type="github">
  <diagram name="Page-1" id="lrwuSZgX4VnGKg4D3DA1">
    <mxGraphModel dx="1221" dy="599" grid="1" gridSize="10" guides="1" tooltips="1" connect="1" arrows="1" fold="1" page="1" pageScale="1" pageWidth="1169" pageHeight="827" math="0" shadow="0">
      <root>
        <mxCell id="0" />
        <mxCell id="1" parent="0" />
        <mxCell id="FsZbiuImTqXAYvnQeXjL-19" value="Members" style="swimlane;whiteSpace=wrap;html=1;" parent="1" vertex="1">
          <mxGeometry x="30" y="40" width="160" height="180" as="geometry" />
        </mxCell>
        <mxCell id="FsZbiuImTqXAYvnQeXjL-20" value="MembersID (PK)" style="text;html=1;strokeColor=none;fillColor=none;align=left;verticalAlign=middle;whiteSpace=wrap;rounded=0;" parent="FsZbiuImTqXAYvnQeXjL-19" vertex="1">
          <mxGeometry x="10" y="30" width="150" height="30" as="geometry" />
        </mxCell>
        <mxCell id="FsZbiuImTqXAYvnQeXjL-21" value="FirstName" style="text;html=1;strokeColor=none;fillColor=none;align=left;verticalAlign=middle;whiteSpace=wrap;rounded=0;" parent="FsZbiuImTqXAYvnQeXjL-19" vertex="1">
          <mxGeometry x="10" y="60" width="150" height="30" as="geometry" />
        </mxCell>
        <mxCell id="FsZbiuImTqXAYvnQeXjL-22" value="LastName" style="text;html=1;strokeColor=none;fillColor=none;align=left;verticalAlign=middle;whiteSpace=wrap;rounded=0;" parent="FsZbiuImTqXAYvnQeXjL-19" vertex="1">
          <mxGeometry x="10" y="90" width="150" height="30" as="geometry" />
        </mxCell>
        <mxCell id="FsZbiuImTqXAYvnQeXjL-23" value="Email (Unique)" style="text;html=1;strokeColor=none;fillColor=none;align=left;verticalAlign=middle;whiteSpace=wrap;rounded=0;" parent="FsZbiuImTqXAYvnQeXjL-19" vertex="1">
          <mxGeometry x="10" y="120" width="150" height="30" as="geometry" />
        </mxCell>
        <mxCell id="FsZbiuImTqXAYvnQeXjL-24" value="PhoneNumber (Unique)" style="text;html=1;strokeColor=none;fillColor=none;align=left;verticalAlign=middle;whiteSpace=wrap;rounded=0;" parent="FsZbiuImTqXAYvnQeXjL-19" vertex="1">
          <mxGeometry x="10" y="150" width="150" height="30" as="geometry" />
        </mxCell>
        <mxCell id="FsZbiuImTqXAYvnQeXjL-25" value="Books" style="swimlane;whiteSpace=wrap;html=1;" parent="1" vertex="1">
          <mxGeometry x="230" y="40" width="160" height="180" as="geometry" />
        </mxCell>
        <mxCell id="FsZbiuImTqXAYvnQeXjL-26" value="BookID (PK)" style="text;html=1;strokeColor=none;fillColor=none;align=left;verticalAlign=middle;whiteSpace=wrap;rounded=0;" parent="FsZbiuImTqXAYvnQeXjL-25" vertex="1">
          <mxGeometry x="10" y="30" width="150" height="30" as="geometry" />
        </mxCell>
        <mxCell id="FsZbiuImTqXAYvnQeXjL-27" value="Title" style="text;html=1;strokeColor=none;fillColor=none;align=left;verticalAlign=middle;whiteSpace=wrap;rounded=0;" parent="FsZbiuImTqXAYvnQeXjL-25" vertex="1">
          <mxGeometry x="10" y="60" width="150" height="30" as="geometry" />
        </mxCell>
        <mxCell id="FsZbiuImTqXAYvnQeXjL-28" value="Author (FK)" style="text;html=1;strokeColor=none;fillColor=none;align=left;verticalAlign=middle;whiteSpace=wrap;rounded=0;" parent="FsZbiuImTqXAYvnQeXjL-25" vertex="1">
          <mxGeometry x="10" y="90" width="150" height="30" as="geometry" />
        </mxCell>
        <mxCell id="FsZbiuImTqXAYvnQeXjL-29" value="Genre (FK)" style="text;html=1;strokeColor=none;fillColor=none;align=left;verticalAlign=middle;whiteSpace=wrap;rounded=0;" parent="FsZbiuImTqXAYvnQeXjL-25" vertex="1">
          <mxGeometry x="10" y="120" width="150" height="30" as="geometry" />
        </mxCell>
        <mxCell id="FsZbiuImTqXAYvnQeXjL-30" value="Description" style="text;html=1;strokeColor=none;fillColor=none;align=left;verticalAlign=middle;whiteSpace=wrap;rounded=0;" parent="FsZbiuImTqXAYvnQeXjL-25" vertex="1">
          <mxGeometry x="10" y="150" width="150" height="30" as="geometry" />
        </mxCell>
        <mxCell id="FsZbiuImTqXAYvnQeXjL-31" value="Meetings" style="swimlane;whiteSpace=wrap;html=1;" parent="1" vertex="1">
          <mxGeometry x="440" y="40" width="160" height="120" as="geometry" />
        </mxCell>
        <mxCell id="FsZbiuImTqXAYvnQeXjL-32" value="MeetingID (PK)" style="text;html=1;strokeColor=none;fillColor=none;align=left;verticalAlign=middle;whiteSpace=wrap;rounded=0;" parent="FsZbiuImTqXAYvnQeXjL-31" vertex="1">
          <mxGeometry x="10" y="30" width="150" height="30" as="geometry" />
        </mxCell>
        <mxCell id="FsZbiuImTqXAYvnQeXjL-33" value="Date&amp;nbsp;" style="text;html=1;strokeColor=none;fillColor=none;align=left;verticalAlign=middle;whiteSpace=wrap;rounded=0;" parent="FsZbiuImTqXAYvnQeXjL-31" vertex="1">
          <mxGeometry x="10" y="60" width="150" height="30" as="geometry" />
        </mxCell>
        <mxCell id="FsZbiuImTqXAYvnQeXjL-34" value="Book (FK)" style="text;html=1;strokeColor=none;fillColor=none;align=left;verticalAlign=middle;whiteSpace=wrap;rounded=0;" parent="FsZbiuImTqXAYvnQeXjL-31" vertex="1">
          <mxGeometry x="10" y="90" width="150" height="30" as="geometry" />
        </mxCell>
        <mxCell id="FsZbiuImTqXAYvnQeXjL-37" value="Attendance" style="swimlane;whiteSpace=wrap;html=1;" parent="1" vertex="1">
          <mxGeometry x="650" y="40" width="160" height="120" as="geometry" />
        </mxCell>
        <mxCell id="FsZbiuImTqXAYvnQeXjL-38" value="AttendanceID (PK)" style="text;html=1;strokeColor=none;fillColor=none;align=left;verticalAlign=middle;whiteSpace=wrap;rounded=0;" parent="FsZbiuImTqXAYvnQeXjL-37" vertex="1">
          <mxGeometry x="10" y="30" width="150" height="30" as="geometry" />
        </mxCell>
        <mxCell id="FsZbiuImTqXAYvnQeXjL-39" value="Meeting (FK)" style="text;html=1;strokeColor=none;fillColor=none;align=left;verticalAlign=middle;whiteSpace=wrap;rounded=0;" parent="FsZbiuImTqXAYvnQeXjL-37" vertex="1">
          <mxGeometry x="10" y="60" width="150" height="30" as="geometry" />
        </mxCell>
        <mxCell id="FsZbiuImTqXAYvnQeXjL-40" value="Member (FK)" style="text;html=1;strokeColor=none;fillColor=none;align=left;verticalAlign=middle;whiteSpace=wrap;rounded=0;" parent="FsZbiuImTqXAYvnQeXjL-37" vertex="1">
          <mxGeometry x="10" y="90" width="150" height="30" as="geometry" />
        </mxCell>
        <mxCell id="FsZbiuImTqXAYvnQeXjL-41" value="BookReview" style="swimlane;whiteSpace=wrap;html=1;" parent="1" vertex="1">
          <mxGeometry x="860" y="40" width="160" height="180" as="geometry" />
        </mxCell>
        <mxCell id="FsZbiuImTqXAYvnQeXjL-42" value="BookReviewID (PK)" style="text;html=1;strokeColor=none;fillColor=none;align=left;verticalAlign=middle;whiteSpace=wrap;rounded=0;" parent="FsZbiuImTqXAYvnQeXjL-41" vertex="1">
          <mxGeometry x="10" y="30" width="150" height="30" as="geometry" />
        </mxCell>
        <mxCell id="FsZbiuImTqXAYvnQeXjL-43" value="Book (FK)" style="text;html=1;strokeColor=none;fillColor=none;align=left;verticalAlign=middle;whiteSpace=wrap;rounded=0;" parent="FsZbiuImTqXAYvnQeXjL-41" vertex="1">
          <mxGeometry x="10" y="60" width="150" height="30" as="geometry" />
        </mxCell>
        <mxCell id="FsZbiuImTqXAYvnQeXjL-44" value="Rating (check 1-5)" style="text;html=1;strokeColor=none;fillColor=none;align=left;verticalAlign=middle;whiteSpace=wrap;rounded=0;" parent="FsZbiuImTqXAYvnQeXjL-41" vertex="1">
          <mxGeometry x="10" y="90" width="150" height="30" as="geometry" />
        </mxCell>
        <mxCell id="FsZbiuImTqXAYvnQeXjL-45" value="Member (FK)" style="text;html=1;strokeColor=none;fillColor=none;align=left;verticalAlign=middle;whiteSpace=wrap;rounded=0;" parent="FsZbiuImTqXAYvnQeXjL-41" vertex="1">
          <mxGeometry x="10" y="120" width="150" height="30" as="geometry" />
        </mxCell>
        <mxCell id="FsZbiuImTqXAYvnQeXjL-46" value="Comment" style="text;html=1;strokeColor=none;fillColor=none;align=left;verticalAlign=middle;whiteSpace=wrap;rounded=0;" parent="FsZbiuImTqXAYvnQeXjL-41" vertex="1">
          <mxGeometry x="10" y="150" width="150" height="30" as="geometry" />
        </mxCell>
        <mxCell id="FsZbiuImTqXAYvnQeXjL-47" value="Genres" style="swimlane;whiteSpace=wrap;html=1;" parent="1" vertex="1">
          <mxGeometry x="230" y="250" width="160" height="90" as="geometry" />
        </mxCell>
        <mxCell id="FsZbiuImTqXAYvnQeXjL-48" value="GenreID (PK)" style="text;html=1;strokeColor=none;fillColor=none;align=left;verticalAlign=middle;whiteSpace=wrap;rounded=0;" parent="FsZbiuImTqXAYvnQeXjL-47" vertex="1">
          <mxGeometry x="10" y="30" width="150" height="30" as="geometry" />
        </mxCell>
        <mxCell id="FsZbiuImTqXAYvnQeXjL-49" value="Genre" style="text;html=1;strokeColor=none;fillColor=none;align=left;verticalAlign=middle;whiteSpace=wrap;rounded=0;" parent="FsZbiuImTqXAYvnQeXjL-47" vertex="1">
          <mxGeometry x="10" y="60" width="150" height="30" as="geometry" />
        </mxCell>
        <mxCell id="FsZbiuImTqXAYvnQeXjL-51" value="Authors" style="swimlane;whiteSpace=wrap;html=1;" parent="1" vertex="1">
          <mxGeometry x="230" y="370" width="160" height="120" as="geometry" />
        </mxCell>
        <mxCell id="FsZbiuImTqXAYvnQeXjL-52" value="AuthorID (PK)" style="text;html=1;strokeColor=none;fillColor=none;align=left;verticalAlign=middle;whiteSpace=wrap;rounded=0;" parent="FsZbiuImTqXAYvnQeXjL-51" vertex="1">
          <mxGeometry x="10" y="30" width="150" height="30" as="geometry" />
        </mxCell>
        <mxCell id="FsZbiuImTqXAYvnQeXjL-53" value="FirstName" style="text;html=1;strokeColor=none;fillColor=none;align=left;verticalAlign=middle;whiteSpace=wrap;rounded=0;" parent="FsZbiuImTqXAYvnQeXjL-51" vertex="1">
          <mxGeometry x="10" y="60" width="150" height="30" as="geometry" />
        </mxCell>
        <mxCell id="FsZbiuImTqXAYvnQeXjL-54" value="LastName" style="text;html=1;strokeColor=none;fillColor=none;align=left;verticalAlign=middle;whiteSpace=wrap;rounded=0;" parent="FsZbiuImTqXAYvnQeXjL-51" vertex="1">
          <mxGeometry x="10" y="90" width="150" height="30" as="geometry" />
        </mxCell>
      </root>
    </mxGraphModel>
  </diagram>
</mxfile>
